<svg xmlns="http://www.w3.org/2000/svg" xmlns:xlink="http://www.w3.org/1999/xlink" version="1.1" width="146" height="30" enable-background="new 0 0 145.668 30" xml:space="preserve" style=""><rect id="backgroundrect" width="100%" height="100%" x="0" y="0" fill="none" stroke="none"/>








<g class="currentLayer" style=""><title>Layer 1</title><g id="svg_1" class="" filter="url(#f030)">
	<rect y="7.964000225067139" fill="#F9F9F9" width="42.35300064086914" height="14.116999626159668" id="svg_2" x="1.1920928955078125e-7" filter="url(#f030)"/>
	<path fill="#09599E" d="M1.7650001192092897,0.023000038146972643 h38.824 c0.97,0 1.7650000000000001,0.794 1.7650000000000001,1.7650000000000001 v6.177 H1.1920928955078125e-7 V1.7870000381469726 C1.1920928955078125e-7,0.8160000381469728 0.7940001192092896,0.023000038146972643 1.7650001192092897,0.023000038146972643 z" id="svg_3" filter="url(#f030)"/>
	<path fill="#E59703" d="M1.1920928955078125e-7,22.08100003814697 h42.353 v6.177 c0,0.971 -0.794,1.7650000000000001 -1.7650000000000001,1.7650000000000001 H1.7650001192092897 C0.7940001192092896,30.02300003814697 1.1920928955078125e-7,29.22900003814697 1.1920928955078125e-7,28.25800003814697 V22.08100003814697 z" id="svg_4" filter="url(#f030)"/>
	<path opacity="0.05" fill="#FFFFFF" enable-background="new    " d="M1.7650001192092897,29.97900003814697 C0.7940001192092896,29.97900003814697 1.1920928955078125e-7,29.185000038146974 1.1920928955078125e-7,28.214000038146974 V1.7870000381469726 c0,-0.971 0.794,-1.7650000000000001 1.7650000000000001,-1.7650000000000001 h38.824 c0.97,0 1.7650000000000001,0.794 1.7650000000000001,1.7650000000000001 " id="svg_5" filter="url(#f030)"/>
	<g id="svg_6" filter="url(#f030)">
		<polygon fill="#00589F" points="16.368000149726868,18.72900104522705 17.64699947834015,11.27299976348877 19.676000714302063,11.27299976348877 18.39699947834015,18.72900104522705 " id="svg_7" filter="url(#f030)"/>
		<path fill="#00589F" d="M25.76500011920929,11.493000038146972 c-0.3970000000000001,-0.132 -1.015,-0.30900000000000005 -1.8090000000000002,-0.30900000000000005 c-2.03,0 -3.441,1.015 -3.441,2.471 c0,1.059 1.015,1.6760000000000002 1.7650000000000001,2.029 c0.794,0.35300000000000004 1.059,0.6180000000000001 1.059,0.926 c0,0.48500000000000004 -0.6180000000000001,0.7500000000000001 -1.235,0.7500000000000001 c-0.794,0 -1.235,-0.132 -1.8970000000000002,-0.3960000000000001 l-0.265,-0.17700000000000002 l-0.265,1.677 c0.48500000000000004,0.22100000000000003 1.368,0.3960000000000001 2.25,0.3960000000000001 c2.118,0 3.5300000000000002,-1.015 3.5300000000000002,-2.559 c0,-0.8380000000000001 -0.53,-1.5 -1.721,-2.029 c-0.7060000000000001,-0.35300000000000004 -1.147,-0.5740000000000001 -1.147,-0.926 c0,-0.30900000000000005 0.35300000000000004,-0.6620000000000001 1.147,-0.6620000000000001 c0.6620000000000001,0 1.147,0.132 1.5,0.265 l0.17600000000000002,0.08800000000000002 L25.76500011920929,11.493000038146972 " id="svg_8" filter="url(#f030)"/>
		<path fill="#00589F" d="M30.97100011920929,11.316000038146973 h-1.588 c-0.48500000000000004,0 -0.8380000000000001,0.132 -1.059,0.6180000000000001 l-3,6.838 h2.118 c0,0 0.35300000000000004,-0.927 0.44100000000000006,-1.103 c0.22100000000000003,0 2.294,0 2.603,0 c0.04400000000000001,0.265 0.265,1.103 0.265,1.103 h1.8970000000000002 L30.97100011920929,11.316000038146973 M28.45600011920929,16.081000038146975 c0.17600000000000002,-0.44100000000000006 0.794,-2.073 0.794,-2.073 s0.17600000000000002,-0.44100000000000006 0.265,-0.7060000000000001 l0.132,0.6620000000000001 c0,0 0.3970000000000001,1.7650000000000001 0.48500000000000004,2.161 h-1.6760000000000002 V16.081000038146975 z" id="svg_9" filter="url(#f030)"/>
		<path fill="#00589F" d="M14.64700011920929,11.316000038146973 l-1.9849999999999999,5.073 l-0.22000000000000003,-1.014 c-0.35300000000000004,-1.191 -1.544,-2.471 -2.824,-3.132 l1.8530000000000002,6.485 h2.162 l3.221,-7.456 h-2.206 " id="svg_10" filter="url(#f030)"/>
		<path fill="#F9A51A" d="M10.809000119209289,11.273000038146973 H7.54400011920929 L7.5000001192092896,11.449000038146973 c2.559,0.6180000000000001 4.235,2.118 4.941,3.882 l-0.7060000000000001,-3.3970000000000002 C11.64700011920929,11.449000038146973 11.25000011920929,11.316000038146973 10.809000119209289,11.273000038146973 " id="svg_11" filter="url(#f030)"/>
	</g>
</g><path fill="#4361C3" d="M53.58800011920929,0.0010000381469726372 h38.824 c0.971,0 1.7650000000000001,0.794 1.7650000000000001,1.7650000000000001 v26.47 c0,0.971 -0.794,1.766 -1.7650000000000001,1.766 H53.58800011920929 c-0.971,0 -1.7650000000000001,-0.795 -1.7650000000000001,-1.766 V1.7650000381469728 C51.82300011920929,0.7940000381469727 52.61700011920929,0.0010000381469726372 53.58800011920929,0.0010000381469726372 z" id="svg_12" class="" filter="url(#f030)"/><path fill="#FFAF38" d="M78.07300011920928,8.824000038146973 c3.529,0 6.397,2.8680000000000003 6.397,6.397 c0,3.5300000000000002 -2.8680000000000003,6.397 -6.397,6.397 s-6.397,-2.867 -6.397,-6.397 C71.67600011920929,11.692000038146972 74.54400011920929,8.824000038146973 78.07300011920928,8.824000038146973 z" id="svg_13" class="" filter="url(#f030)"/><rect x="72.55899810791016" y="11.911999702453613" fill="#FFAF38" width="4.4120001792907715" height="0.8820000290870667" id="svg_14" class="" filter="url(#f030)"/><path fill="#EB3636" d="M67.92600011920929,21.618000038146974 c-3.529,0 -6.397,-2.867 -6.397,-6.397 c0,-3.529 2.8680000000000003,-6.397 6.397,-6.397 s6.397,2.8680000000000003 6.397,6.397 C74.32300011920928,18.751000038146973 71.45600011920929,21.618000038146974 67.92600011920929,21.618000038146974 z" id="svg_15" class="" filter="url(#f030)"/><path fill="#FFAF38" d="M72.55900011920929,18.089000038146974 v-0.8830000000000001 h5.735 v0.8830000000000001 H72.55900011920929 zM72.55900011920929,11.912000038146973 h5.735 v0.8820000000000001 h-5.735 V11.912000038146973 zM77.85300011920928,14.559000038146973 h-5.735 v-0.8820000000000001 h5.735 V14.559000038146973 zM77.85300011920928,16.324000038146973 h-5.735 v-0.8820000000000001 h5.735 V16.324000038146973 z" id="svg_16" class="" filter="url(#f030)"/><path opacity="0" fill="#000000" enable-background="new    " d="M54.27293163585663,31.37086307144165 h0.794 L94.86093163585663,3.9288630714416506 V3.1348630714416506 c0,-0.971 -0.794,-1.7650000000000001 -1.7650000000000001,-1.7650000000000001 H54.27293163585663 c-0.971,0 -1.7650000000000001,0.794 -1.7650000000000001,1.7650000000000001 v26.47 C52.50793163585663,30.57586307144165 53.301931635856626,31.37086307144165 54.27293163585663,31.37086307144165 z" id="svg_17" class="" fill-opacity="1" filter="url(#f030)"/><g id="svg_18" class="" filter="url(#f030)">
	<path fill="#F7F6F4" d="M105.03500011920929,3.8146972636265986e-8 h38.824 c0.971,0 1.7650000000000001,0.794 1.7650000000000001,1.7650000000000001 V28.23500003814697 c0,0.971 -0.794,1.7650000000000001 -1.7650000000000001,1.7650000000000001 h-38.824 c-0.971,0 -1.7640000000000002,-0.794 -1.7640000000000002,-1.7650000000000001 V1.7650000381469728 C103.27100011920929,0.7940000381469727 104.06400011920928,3.8146972636265986e-8 105.03500011920929,3.8146972636265986e-8 z" id="svg_19" filter="url(#f030)"/>
	<path fill="#053385" d="M126.30100011920929,14.206000038146973 l-4.059,5.955 c-0.04500000000000001,0.08900000000000002 -0.17800000000000002,0.133 -0.31000000000000005,0.133 h-1.235 c-0.17600000000000002,0 -0.265,-0.17600000000000002 -0.17600000000000002,-0.35300000000000004 l1.279,-1.81 l-1.324,-4.014 c-0.04400000000000001,-0.132 0.04500000000000001,-0.265 0.22100000000000003,-0.265 h1.191 c0.17600000000000002,0 0.30900000000000005,0.08800000000000002 0.35400000000000004,0.265 l0.7050000000000001,2.426 l1.677,-2.515 c0.04400000000000001,-0.08800000000000002 0.17700000000000002,-0.17600000000000002 0.30900000000000005,-0.17600000000000002 h1.235 C126.30100011920929,13.853000038146973 126.38900011920929,14.074000038146973 126.30100011920929,14.206000038146973 zM118.84400011920928,18.618000038146974 h-1.102 c-0.133,0 -0.22100000000000003,-0.133 -0.22100000000000003,-0.266 l0.04300000000000001,-0.35300000000000004 c0,0 -0.6170000000000001,0.7060000000000001 -1.6760000000000002,0.7060000000000001 c-0.6170000000000001,0 -1.146,-0.17700000000000002 -1.544,-0.6170000000000001 c-0.3970000000000001,-0.48600000000000004 -0.5730000000000001,-1.191 -0.44100000000000006,-1.8970000000000002 c0.22100000000000003,-1.456 1.368,-2.471 2.7350000000000003,-2.471 c0.5740000000000001,0 1.191,0.132 1.456,0.529 l0.08800000000000002,0.132 l0.04400000000000001,-0.35300000000000004 c0,-0.08800000000000002 0.08800000000000002,-0.17600000000000002 0.22100000000000003,-0.17600000000000002 h1.235 c0.132,0 0.22100000000000003,0.132 0.22100000000000003,0.265 l-0.6610000000000001,4.235 C119.1530001192093,18.48500003814697 119.02100011920929,18.618000038146974 118.84400011920928,18.618000038146974 zM117.7420001192093,15.397000038146972 c-0.17800000000000002,-0.22100000000000003 -0.48600000000000004,-0.35400000000000004 -0.795,-0.35400000000000004 c-0.7050000000000001,0 -1.234,0.48500000000000004 -1.367,1.191 c-0.04500000000000001,0.35300000000000004 0,0.6620000000000001 0.17600000000000002,0.8830000000000001 c0.17700000000000002,0.22100000000000003 0.48600000000000004,0.35200000000000004 0.8390000000000001,0.35200000000000004 c0.7060000000000001,0 1.235,-0.48400000000000004 1.367,-1.189 C118.00600011920929,15.926000038146972 117.9180001192093,15.618000038146972 117.7420001192093,15.397000038146972 zM111.34400011920928,16.23500003814697 h-0.793 c-0.17700000000000002,0 -0.30900000000000005,0.133 -0.35400000000000004,0.30900000000000005 l-0.265,1.7650000000000001 c-0.04400000000000001,0.17700000000000002 -0.17700000000000002,0.31000000000000005 -0.35300000000000004,0.31000000000000005 h-1.191 c-0.133,0 -0.22100000000000003,-0.133 -0.22100000000000003,-0.266 l1.015,-6.617 c0.04400000000000001,-0.17600000000000002 0.17700000000000002,-0.30900000000000005 0.35300000000000004,-0.30900000000000005 h2.56 c0.8380000000000001,0 1.499,0.22100000000000003 1.8530000000000002,0.6620000000000001 c0.30900000000000005,0.3970000000000001 0.44100000000000006,0.971 0.30900000000000005,1.6760000000000002 C113.94700011920929,15.441000038146973 112.9770001192093,16.23500003814697 111.34400011920928,16.23500003814697 zM112.2270001192093,13.191000038146973 c-0.22100000000000003,-0.265 -0.6620000000000001,-0.265 -1.103,-0.265 h-0.17700000000000002 c-0.08800000000000002,0 -0.17600000000000002,0.08800000000000002 -0.22100000000000003,0.17700000000000002 l-0.265,1.721 h0.3970000000000001 c0.6620000000000001,0 1.367,0 1.5,-0.927 C112.4030001192093,13.588000038146973 112.35900011920928,13.324000038146973 112.2270001192093,13.191000038146973 z" id="svg_20" filter="url(#f030)"/>
	<path fill="#199DDB" d="M139.7560001192093,18.353000038146973 c-0.04400000000000001,0.17700000000000002 -0.17600000000000002,0.30900000000000005 -0.35300000000000004,0.30900000000000005 h-1.059 c-0.132,0 -0.22100000000000003,-0.132 -0.22100000000000003,-0.264 l1.06,-6.706 c0,-0.08800000000000002 0.08800000000000002,-0.17700000000000002 0.22000000000000003,-0.17700000000000002 h1.19 c0.133,0 0.22100000000000003,0.132 0.22100000000000003,0.265 L139.7560001192093,18.353000038146973 zM136.93300011920928,18.618000038146974 h-1.103 c-0.133,0 -0.22100000000000003,-0.133 -0.22100000000000003,-0.266 l0.04400000000000001,-0.35300000000000004 c0,0 -0.6180000000000001,0.7060000000000001 -1.677,0.7060000000000001 c-0.6170000000000001,0 -1.146,-0.17700000000000002 -1.544,-0.6170000000000001 c-0.3970000000000001,-0.48600000000000004 -0.5730000000000001,-1.191 -0.44100000000000006,-1.8970000000000002 c0.22100000000000003,-1.456 1.368,-2.471 2.7350000000000003,-2.471 c0.5740000000000001,0 1.191,0.132 1.456,0.529 l0.08900000000000002,0.132 l0.04400000000000001,-0.35300000000000004 c0,-0.08800000000000002 0.08800000000000002,-0.17600000000000002 0.22000000000000003,-0.17600000000000002 h1.236 c0.132,0 0.22100000000000003,0.132 0.22100000000000003,0.265 l-0.6620000000000001,4.235 C137.2850001192093,18.48500003814697 137.1090001192093,18.618000038146974 136.93300011920928,18.618000038146974 zM135.8300001192093,15.397000038146972 c-0.17700000000000002,-0.22100000000000003 -0.48500000000000004,-0.35400000000000004 -0.795,-0.35400000000000004 c-0.7050000000000001,0 -1.234,0.48500000000000004 -1.367,1.191 c-0.04400000000000001,0.35300000000000004 0,0.6620000000000001 0.17600000000000002,0.8830000000000001 c0.17800000000000002,0.22100000000000003 0.48600000000000004,0.35200000000000004 0.8390000000000001,0.35200000000000004 c0.7060000000000001,0 1.235,-0.48400000000000004 1.368,-1.189 C136.0950001192093,15.926000038146972 136.05100011920928,15.618000038146972 135.8300001192093,15.397000038146972 zM129.43300011920928,16.23500003814697 h-0.794 c-0.17700000000000002,0 -0.30900000000000005,0.133 -0.35400000000000004,0.30900000000000005 l-0.30900000000000005,1.8960000000000001 c0,0.133 -0.132,0.22100000000000003 -0.264,0.22100000000000003 h-1.324 c-0.133,0 -0.22100000000000003,-0.132 -0.22100000000000003,-0.264 l1.015,-6.618 c0.04400000000000001,-0.17600000000000002 0.17700000000000002,-0.30900000000000005 0.35300000000000004,-0.30900000000000005 h2.559 c0.8390000000000001,0 1.501,0.22100000000000003 1.854,0.6620000000000001 c0.30900000000000005,0.3970000000000001 0.44100000000000006,0.971 0.30900000000000005,1.6760000000000002 C132.0800001192093,15.441000038146973 131.1090001192093,16.23500003814697 129.43300011920928,16.23500003814697 zM130.31400011920928,13.191000038146973 c-0.22100000000000003,-0.265 -0.6610000000000001,-0.265 -1.103,-0.265 h-0.17700000000000002 c-0.08800000000000002,0 -0.17600000000000002,0.08800000000000002 -0.22000000000000003,0.17700000000000002 l-0.265,1.721 h0.3960000000000001 c0.6620000000000001,0 1.367,0 1.5,-0.927 C130.49200011920928,13.588000038146973 130.4470001192093,13.324000038146973 130.31400011920928,13.191000038146973 z" id="svg_21" filter="url(#f030)"/>
	<path opacity="0.12" fill="#FFFFFF" enable-background="new    " d="M105.69700011920929,30.000000038146972 c-1.323,0 -2.426,-1.103 -2.426,-2.47 V2.4710000381469728 c0,-1.368 1.059,-2.471 2.426,-2.471 h37.544 c1.323,0 2.427,1.103 2.427,2.471 " id="svg_22" filter="url(#f030)"/>
</g></g><defs><filter id="f007" xmlns:inkscape="http://www.inkscape.org/namespaces/inkscape" inkscape:label="Cutout" x="0" y="0" width="1" height="1" inkscape:menu="Shadows and Glows" inkscape:menu-tooltip="Drop shadow under the cut-out of the shape" color-interpolation-filters="sRGB">
            <feGaussianBlur in="SourceAlpha" stdDeviation="4.2"/>
            <feOffset dy="5" dx="5" result="result91"/>
            <feComposite operator="out" in="SourceGraphic" in2="result91"/>
        </filter><filter id="f030" xmlns:inkscape="http://www.inkscape.org/namespaces/inkscape" inkscape:label="Desaturate" x="0" y="0" width="1" height="1" inkscape:menu="Color" inkscape:menu-tooltip="Render in shades of gray by reducing saturation to zero" color-interpolation-filters="sRGB">
            <feColorMatrix type="saturate" values="0"/>
        </filter></defs></svg>